<?xml version="1.0" encoding="UTF-8"?>
<svg id="Layer_1" xmlns="http://www.w3.org/2000/svg" version="1.1" viewBox="0 0 411.7 483.3">
  <!-- Generator: Adobe Illustrator 29.6.0, SVG Export Plug-In . SVG Version: 2.1.1 Build 107)  -->
  <defs>
    <style>
      .st0, .st1 {
        fill: #272525;
      }

      .st1 {
        stroke: #cb272b;
        stroke-miterlimit: 10;
        stroke-width: .2px;
      }
    </style>
  </defs>
  <path class="st0" d="M43.8,242.4c.2.6,3.6.3,6.5,2.2,3.4,2.3,3.4,4.7,7,3.9s.3-16.7,6.3-25.8c15.8-24,61.6-39.1,66.5-42.5,9.9-6.9,15.8-12.7,19.2-22.1,3.2-8.7,4.8-23.5,2.1-40s2.9-7.6,4.9-4.8,14.1,23.7,10.9,43c-4.8,28.8-31.6,33.1-35,32.9-19.6-1.1-56.6,23.2-64.7,36.8-4.2,7,0,22.4-7.2,26-6.5,3.2-10.7,0-14.1-3.6-4.3-4.4-18.9,5.2-23.5,6.3s-19.5,2.6-19.2,2.1C8.5,245,0,234.7,0,233.8c0-8.2,4.1-19.3,7.9-26.5,5.2-9.7,25.1-32.4,29.8-59.5,5.3-30.6,17.5-41.2,21-45.7s.3-4.5-1.4-6.6c-8.4-10.1-20-10.1-18.6-15.2s14.4-1.3,16-3.4c2.2-3-24.2-38.4-21-41.2,3.8-3.3,32.2,31.2,35.2,30,2.5-1,.8-14.4,4.2-15.4,6-1.9,4.7,13.3,16.5,20.2,5.3,3.1,10.8-3.8,11.9-7.3s2.6-16.9,3.9-22.1c1.8-7.7,5.5-14.6,11-20.3,5.9-6,24.8-24.5,26.8-20.1,1,2.2-4.5,4.7-5.9,11.5s-.3,17-2.9,24.4c-2.1,5.8-12.2,15.7-14.9,19.4-1.1,1.4-1.1,4.2,1.1,4.2,3.1,0,41.8-.3,48.4-.1,11.8.3,64.8,0,75.7.1,40.4.7,109.4,1.8,142.6,47.5,39.8,54.8,23.3,118.9,7.1,142.1-25.3,36.2-56.7,36.9-70.7,39.8-10.5,2.2-62.7,2.9-66.1,2.4v17.1h53.4s.2,60.4,0,59.9c-2.3-5-16.3-45.4-53.3-43.4,0,0,0,147.2,0,153.2h75.9v4.7c-10.4-.2-100.7,0-105.4,0-5.8,0-16-1.4-28.6-4.3-20.5-4.8-68.3-37.1-57.2-97.2,10.2-55.4,82.2-69.6,82.2-69.6,0-11.3.1-86.4,0-98.2-.7-56.4,0-85.3-14-106.9-9.6-14.9-31.8-32-39.1-35.4-20-9.4-40.1-8.9-44.2-8.8-11.7.2-11.5-2-11.4-5.5.2-3.9,3.9-6.6,6.8-9.3,7.7-7.2,10.3-14.9,10.6-26.2.1-4.5,1.7-10.8,2.3-14.1.2-.8-12.1,10.2-18.9,18.4s-8.1,16.4-9.1,25.3c-1.8,14.5.2,19.8-22.2,33.3-6.6,4-24.9,21.2-33.6,35.8-5.3,8.9-6.9,24.7-14,43.7-8.4,22.7-16.3,28.7-26.6,48.1-3.2,6.1-7.3,17.8-3.3,25,1.8,3.3,2.2,5.8,2.8,9.6.4,2.3,1.5,3,3.4,3,9,0,19.5-4.1,26.1-12,6.2-7.4,7.4-15,4.5-23.7,0-.3,6.6,7.1,5.2,15.5-.9,5.5-6.2,11.2-5.8,12.5ZM257.3,276.6c17.5.5,41.6,0,54.2-5,28.5-11.2,43.8-46.7,43.8-87.1s-12.7-72.1-34.4-87.4c-19.3-13.5-35.8-14.5-63.7-14.5s0,194,0,194ZM224,329.1c-10.4,1.9-34.8,21.2-36,64.5-1.7,61.8,33.1,73.2,36,73.2v-137.6Z"/>
  <path class="st0" d="M103.1,128.5c-.3-.5-1-.6-1.5-.2,0,0,0,0,0,0-8.9,7-24.1,8.9-34.4,3.8-2.6-1.4-4.4,2.7-1.6,3.6,9.4,2.6,19.8,2.2,28.9-1.4-4.6,4.7-8.4,10.3-10.4,16.7-.7,2.7,3.5,3.7,4.1.9,2.1-8.8,7.8-16.4,14.7-22.2,0,0,0,0,0,0,0,0,0,0,0,0,.4-.3.5-.9.2-1.4Z"/>
  <path class="st0" d="M22,224.5c2.6,4.3,3.3,9.9.4,14.2-.9,1.1-2.7,5.1-4.5,3.6-.4-.5-.4-1.2,0-1.6,1.4-1.9,2.6-4.7,2.7-6.9,0-2.2-1.3-4.7-2.7-6.3-2.2-2.9,2.3-6,4.2-2.9h0Z"/>
  <path class="st1" d="M130.4,63.2"/>
</svg>